<?xml version="1.0" encoding="utf-8"?>
<!-- Generator: Adobe Illustrator 23.0.1, SVG Export Plug-In . SVG Version: 6.00 Build 0)  -->
<svg version="1.1" id="Capa_1" xmlns="http://www.w3.org/2000/svg" xmlns:xlink="http://www.w3.org/1999/xlink" x="0px" y="0px"
	 viewBox="0 0 1440 90.2" style="enable-background:new 0 0 1440 90.2;" xml:space="preserve">
<style type="text/css">
	.st0{fill:none;stroke:#FFFFFF;stroke-width:2;stroke-miterlimit:10;}
	.st1{fill:#FFFFFF;}
</style>
<g>
	
		<rect x="79.8" y="18.99" transform="matrix(0.7071 -0.7071 0.7071 0.7071 -1.2898 89.1143)" class="st0" width="54.24" height="54.24"/>
	
		<rect x="161.16" y="32.68" transform="matrix(0.7071 -0.7071 0.7071 0.7071 18.3489 137.3976)" class="st1" width="27.74" height="27.74"/>
	
		<rect x="24.82" y="32.68" transform="matrix(0.7071 -0.7071 0.7071 0.7071 -21.5823 40.9953)" class="st1" width="27.74" height="27.74"/>
	
		<rect x="216.24" y="18.99" transform="matrix(0.7071 -0.7071 0.7071 0.7071 38.6707 185.5875)" class="st0" width="54.24" height="54.24"/>
	
		<rect x="297.59" y="32.68" transform="matrix(0.7071 -0.7071 0.7071 0.7071 58.3094 233.8708)" class="st1" width="27.74" height="27.74"/>
	
		<rect x="352.67" y="18.99" transform="matrix(0.7071 -0.7071 0.7071 0.7071 78.6312 282.0607)" class="st0" width="54.24" height="54.24"/>
	
		<rect x="434.02" y="32.68" transform="matrix(0.7071 -0.7071 0.7071 0.7071 98.2699 330.344)" class="st1" width="27.74" height="27.74"/>
	
		<rect x="488.39" y="18.99" transform="matrix(0.7071 -0.7071 0.7071 0.7071 118.3824 378.0286)" class="st0" width="54.24" height="54.24"/>
	
		<rect x="569.74" y="32.68" transform="matrix(0.7071 -0.7071 0.7071 0.7071 138.0211 426.3119)" class="st1" width="27.74" height="27.74"/>
	
		<rect x="623.82" y="18.99" transform="matrix(0.7071 -0.7071 0.7071 0.7071 158.0501 473.7946)" class="st0" width="54.24" height="54.24"/>
	
		<rect x="705.18" y="32.68" transform="matrix(0.7071 -0.7071 0.7071 0.7071 177.6887 522.078)" class="st1" width="27.74" height="27.74"/>
	
		<rect x="759.26" y="18.99" transform="matrix(0.7071 -0.7071 0.7071 0.7071 197.7177 569.5607)" class="st0" width="54.24" height="54.24"/>
	
		<rect x="840.61" y="32.68" transform="matrix(0.7071 -0.7071 0.7071 0.7071 217.3563 617.8441)" class="st1" width="27.74" height="27.74"/>
	
		<rect x="896.26" y="18.99" transform="matrix(0.7071 -0.7071 0.7071 0.7071 237.844 666.4344)" class="st0" width="54.24" height="54.24"/>
	
		<rect x="977.61" y="32.68" transform="matrix(0.7071 -0.7071 0.7071 0.7071 257.4827 714.7177)" class="st1" width="27.74" height="27.74"/>
</g>
<g>
	
		<rect x="1032.8" y="18.99" transform="matrix(0.7071 -0.7071 0.7071 0.7071 277.8375 762.987)" class="st0" width="54.24" height="54.24"/>
	
		<rect x="1114.16" y="32.68" transform="matrix(0.7071 -0.7071 0.7071 0.7071 297.4761 811.2704)" class="st1" width="27.74" height="27.74"/>
	
		<rect x="1169.24" y="18.99" transform="matrix(0.7071 -0.7071 0.7071 0.7071 317.798 859.4602)" class="st0" width="54.24" height="54.24"/>
	
		<rect x="1250.59" y="32.68" transform="matrix(0.7071 -0.7071 0.7071 0.7071 337.4366 907.7436)" class="st1" width="27.74" height="27.74"/>
	
		<rect x="1305.67" y="18.99" transform="matrix(0.7071 -0.7071 0.7071 0.7071 357.7585 955.9334)" class="st0" width="54.24" height="54.24"/>
	
		<rect x="1387.02" y="32.68" transform="matrix(0.7071 -0.7071 0.7071 0.7071 377.3971 1004.2167)" class="st1" width="27.74" height="27.74"/>
</g>
</svg>
