<?xml version="1.0" encoding="utf-8"?>
<!-- Generator: Adobe Illustrator 23.0.1, SVG Export Plug-In . SVG Version: 6.00 Build 0)  -->
<svg version="1.1" id="Capa_1" xmlns="http://www.w3.org/2000/svg" xmlns:xlink="http://www.w3.org/1999/xlink" x="0px" y="0px"
	 viewBox="0 0 204.8 29.1" style="enable-background:new 0 0 204.8 29.1;" xml:space="preserve">
<style type="text/css">
	.st0{fill:#FDFDFC;}
</style>
<g>
	<g>
		<path class="st0" d="M48.2,19.4c-0.3,0.5-0.6,1-1.1,1.4s-1,0.7-1.7,0.9S44,22,43.2,22c-1.1,0-2.1-0.1-3-0.5
			c-0.8-0.3-1.6-0.8-2.3-1.5l1.5-1.5c0.5,0.5,1.1,0.9,1.8,1.1c0.6,0.2,1.3,0.3,2.1,0.3c1,0,1.8-0.2,2.3-0.6c0.5-0.4,0.8-1,0.8-1.7
			c0-0.7-0.2-1.2-0.6-1.6c-0.2-0.2-0.4-0.3-0.6-0.4s-0.6-0.2-1-0.2l-1.8-0.2c-1.2-0.2-2.2-0.6-2.9-1.2c-0.7-0.7-1.1-1.6-1.1-2.9
			c0-0.6,0.1-1.2,0.3-1.8s0.6-1,1-1.4c0.4-0.4,1-0.7,1.6-0.9c0.6-0.2,1.3-0.3,2.1-0.3c1,0,1.9,0.1,2.6,0.4s1.4,0.7,2.1,1.3l-1.5,1.4
			c-0.5-0.4-1-0.8-1.5-0.9S44,8.6,43.3,8.6c-0.9,0-1.6,0.2-2,0.7c-0.5,0.4-0.7,1-0.7,1.7c0,0.3,0,0.5,0.1,0.8s0.2,0.4,0.4,0.6
			c0.4,0.4,1,0.6,1.7,0.7l1.7,0.2c0.7,0.1,1.3,0.3,1.7,0.4c0.4,0.2,0.8,0.4,1.1,0.7c0.4,0.4,0.7,0.8,0.9,1.3
			c0.2,0.5,0.3,1.1,0.3,1.8C48.6,18.2,48.5,18.8,48.2,19.4z"/>
		<path class="st0" d="M59.6,18.9c-0.2,0.7-0.5,1.3-1,1.8c-0.3,0.4-0.8,0.7-1.3,0.9S56.1,22,55.4,22s-1.4-0.1-1.9-0.4
			s-1-0.5-1.3-0.9c-0.5-0.5-0.8-1.1-1-1.8c-0.2-0.7-0.2-1.5-0.2-2.4c0-0.9,0.1-1.7,0.2-2.4s0.5-1.3,1-1.8c0.3-0.4,0.8-0.7,1.3-0.9
			s1.2-0.4,1.9-0.4s1.4,0.1,1.9,0.4c0.5,0.2,1,0.5,1.3,0.9c0.5,0.5,0.8,1.1,1,1.8s0.2,1.5,0.2,2.4C59.8,17.4,59.8,18.2,59.6,18.9z
			 M57.6,14.8c-0.1-0.5-0.3-0.9-0.6-1.3c-0.4-0.4-0.9-0.6-1.6-0.6c-0.6,0-1.2,0.2-1.6,0.6c-0.3,0.3-0.5,0.8-0.6,1.3S53,15.9,53,16.4
			c0,0.6,0,1.1,0.1,1.7c0.1,0.5,0.3,1,0.6,1.3c0.4,0.4,1,0.6,1.6,0.6c0.6,0,1.2-0.2,1.6-0.6c0.3-0.3,0.5-0.8,0.6-1.3
			s0.1-1.1,0.1-1.7C57.7,15.9,57.7,15.3,57.6,14.8z"/>
		<path class="st0" d="M69.3,21.8v-6.5c0-0.8-0.2-1.4-0.6-1.8c-0.4-0.4-0.9-0.6-1.5-0.6s-1.1,0.2-1.6,0.6s-0.7,1-0.7,1.8v6.5h-2.2
			V11.1h2.1v1.1c0.4-0.4,0.8-0.7,1.3-0.9s1-0.3,1.6-0.3c0.6,0,1.1,0.1,1.5,0.2c0.4,0.2,0.8,0.4,1.2,0.7c0.4,0.4,0.7,0.9,0.8,1.4
			c0.2,0.5,0.2,1.1,0.2,1.7v6.9H69.3z"/>
		<path class="st0" d="M74.7,9V6.7H77V9L74.7,9L74.7,9z M74.8,21.8V11.1H77v10.7H74.8z"/>
		<path class="st0" d="M86.2,21.8v-1c-0.4,0.4-0.8,0.7-1.2,0.9c-0.4,0.2-1,0.2-1.6,0.2c-0.7,0-1.2-0.1-1.7-0.2s-0.8-0.4-1.2-0.7
			c-0.6-0.6-0.8-1.4-0.8-2.3c0-0.9,0.3-1.6,0.9-2.2c0.6-0.6,1.5-0.9,2.8-0.9h2.8v-0.8c0-0.7-0.2-1.2-0.5-1.5s-1-0.5-1.8-0.5
			c-0.6,0-1.1,0.1-1.4,0.2s-0.7,0.4-0.9,0.8L80,12.5c0.5-0.6,1.1-1,1.6-1.2S83,11,83.8,11c2.9,0,4.4,1.2,4.4,3.7v7.2H86.2z
			 M86.1,17.1h-2.5c-0.6,0-1.1,0.1-1.4,0.4s-0.5,0.6-0.5,1.1s0.2,0.9,0.5,1.1c0.3,0.3,0.8,0.4,1.5,0.4c0.4,0,0.8,0,1.1-0.1
			s0.6-0.2,0.9-0.5c0.3-0.3,0.5-0.8,0.5-1.6V17.1z"/>
		<path class="st0" d="M106.5,19.3c-0.3,0.6-0.7,1.1-1.2,1.5c-0.5,0.4-1,0.7-1.6,0.9c-0.6,0.2-1.2,0.3-1.9,0.3
			c-0.8,0-1.5-0.1-2.2-0.4c-0.7-0.3-1.3-0.7-1.8-1.2c-0.4-0.4-0.7-0.8-0.8-1.2s-0.3-0.9-0.4-1.3c-0.1-0.5-0.2-1-0.2-1.6
			c0-0.6,0-1.2,0-2s0-1.4,0-2c0-0.6,0.1-1.1,0.2-1.6c0.1-0.5,0.2-0.9,0.4-1.3c0.2-0.4,0.5-0.8,0.8-1.2c0.5-0.5,1.1-0.9,1.8-1.2
			c0.7-0.3,1.4-0.4,2.2-0.4c1.4,0,2.6,0.4,3.5,1.2s1.6,1.9,1.8,3.5h-2.3c-0.2-0.8-0.5-1.4-1-1.9s-1.2-0.7-2-0.7
			c-0.4,0-0.9,0.1-1.2,0.2s-0.7,0.4-1,0.7c-0.2,0.2-0.3,0.4-0.5,0.6c-0.1,0.2-0.2,0.5-0.3,0.9s-0.1,0.8-0.1,1.3s0,1.1,0,1.9
			s0,1.4,0,1.9c0,0.5,0.1,0.9,0.1,1.3s0.2,0.6,0.3,0.9c0.1,0.2,0.3,0.5,0.5,0.6c0.3,0.3,0.6,0.5,1,0.7c0.4,0.2,0.8,0.2,1.2,0.2
			c0.8,0,1.5-0.2,2-0.7s0.8-1.1,1-1.9h2.3C107.1,18.1,106.8,18.7,106.5,19.3z"/>
		<path class="st0" d="M112.9,21.8c-0.5,0-0.9-0.1-1.3-0.2s-0.7-0.4-0.9-0.6s-0.4-0.6-0.5-0.9s-0.2-0.7-0.2-1.1V6.8h2.2v12
			c0,0.4,0.1,0.7,0.2,0.9c0.2,0.2,0.5,0.3,0.9,0.3h0.9v1.8H112.9z"/>
		<path class="st0" d="M117.7,17.1c0,0.9,0.2,1.7,0.7,2.2c0.5,0.5,1.1,0.8,2,0.8c0.6,0,1.1-0.1,1.5-0.3s0.8-0.5,1.1-0.8l1.4,1.3
			c-0.3,0.3-0.6,0.5-0.8,0.7c-0.3,0.2-0.6,0.4-0.9,0.5c-0.3,0.1-0.7,0.2-1,0.3c-0.4,0.1-0.8,0.1-1.3,0.1c-0.7,0-1.3-0.1-1.9-0.3
			c-0.6-0.2-1.1-0.5-1.5-0.9c-0.4-0.4-0.8-1-1-1.7c-0.3-0.7-0.4-1.6-0.4-2.6c0-1.7,0.4-3.1,1.2-4s1.9-1.4,3.3-1.4
			c0.7,0,1.4,0.1,1.9,0.4c0.6,0.2,1,0.6,1.4,1.1s0.7,1,0.9,1.6c0.2,0.6,0.3,1.3,0.3,2.1v1L117.7,17.1L117.7,17.1z M122.4,14.8
			c0-0.2-0.1-0.4-0.2-0.7c-0.2-0.4-0.4-0.7-0.8-1c-0.4-0.2-0.8-0.4-1.3-0.4s-0.9,0.1-1.3,0.4s-0.7,0.6-0.8,1
			c-0.1,0.2-0.2,0.5-0.2,0.7c0,0.2-0.1,0.5-0.1,0.8h4.8C122.5,15.3,122.4,15,122.4,14.8z"/>
		<path class="st0" d="M140.5,21.8v-6.5c0-0.8-0.2-1.4-0.6-1.8c-0.4-0.4-0.9-0.6-1.5-0.6c-0.3,0-0.6,0.1-0.9,0.1s-0.5,0.2-0.7,0.4
			c-0.2,0.2-0.4,0.4-0.5,0.7c-0.1,0.3-0.2,0.6-0.2,1v6.6H134v-6.5c0-0.8-0.2-1.4-0.6-1.8c-0.4-0.4-0.9-0.6-1.5-0.6s-1.1,0.2-1.6,0.6
			s-0.7,1-0.7,1.8v6.5h-2.2V11.1h2.1v1.1c0.4-0.4,0.8-0.7,1.3-0.9c0.5-0.2,1-0.3,1.6-0.3c1.4,0,2.4,0.5,3.1,1.6c0.9-1,2-1.6,3.4-1.6
			c0.6,0,1.1,0.1,1.5,0.2c0.5,0.2,0.9,0.4,1.2,0.7c0.4,0.4,0.7,0.9,0.9,1.4c0.2,0.5,0.3,1.1,0.3,1.7v6.9H140.5z"/>
		<path class="st0" d="M147.6,17.1c0,0.9,0.2,1.7,0.7,2.2c0.5,0.5,1.1,0.8,2,0.8c0.6,0,1.1-0.1,1.5-0.3c0.4-0.2,0.8-0.5,1.1-0.8
			l1.4,1.3c-0.3,0.3-0.6,0.5-0.8,0.7s-0.6,0.4-0.9,0.5c-0.3,0.1-0.7,0.2-1,0.3c-0.4,0.1-0.8,0.1-1.3,0.1c-0.7,0-1.3-0.1-1.9-0.3
			s-1.1-0.5-1.5-0.9s-0.8-1-1-1.7s-0.4-1.6-0.4-2.6c0-1.7,0.4-3.1,1.2-4s1.9-1.4,3.3-1.4c0.7,0,1.4,0.1,1.9,0.4
			c0.6,0.2,1,0.6,1.4,1.1s0.7,1,0.9,1.6s0.3,1.3,0.3,2.1v1L147.6,17.1L147.6,17.1z M152.4,14.8c0-0.2-0.1-0.4-0.2-0.7
			c-0.2-0.4-0.4-0.7-0.8-1c-0.4-0.2-0.8-0.4-1.3-0.4s-0.9,0.1-1.3,0.4c-0.4,0.2-0.6,0.6-0.8,1c-0.1,0.2-0.2,0.5-0.2,0.7
			s-0.1,0.5-0.1,0.8h4.8C152.4,15.3,152.4,15,152.4,14.8z"/>
		<path class="st0" d="M164,21.8v-6.5c0-0.8-0.2-1.4-0.6-1.8c-0.4-0.4-0.9-0.6-1.5-0.6s-1.1,0.2-1.6,0.6s-0.7,1-0.7,1.8v6.5h-2.2
			V11.1h2.1v1.1c0.4-0.4,0.8-0.7,1.3-0.9s1-0.3,1.6-0.3c0.6,0,1.1,0.1,1.5,0.2c0.4,0.2,0.8,0.4,1.1,0.7c0.4,0.4,0.7,0.9,0.9,1.4
			c0.1,0.5,0.2,1.1,0.2,1.7v6.9H164z"/>
		<path class="st0" d="M172.6,21.8c-0.5,0-0.9-0.1-1.3-0.2c-0.4-0.2-0.7-0.4-0.9-0.7s-0.4-0.6-0.5-1s-0.2-0.7-0.2-1.1v-5.9h-1.2
			v-1.6h1.2V8h2.2v3.3h2.1v1.6h-2.1v5.8c0,0.4,0.1,0.7,0.3,0.9c0.2,0.2,0.5,0.3,0.9,0.3h0.9v1.8H172.6z"/>
		<path class="st0" d="M176.6,9V6.7h2.3V9L176.6,9L176.6,9z M176.7,21.8V11.1h2.2v10.7H176.7z"/>
		<path class="st0" d="M188.8,21.8v-6.5c0-0.8-0.2-1.4-0.6-1.8c-0.4-0.4-0.9-0.6-1.5-0.6s-1.1,0.2-1.6,0.6s-0.7,1-0.7,1.8v6.5h-2.2
			V11.1h2.1v1.1c0.4-0.4,0.8-0.7,1.3-0.9s1-0.3,1.6-0.3c0.6,0,1.1,0.1,1.5,0.2c0.4,0.2,0.8,0.4,1.1,0.7c0.4,0.4,0.7,0.9,0.9,1.4
			s0.2,1.1,0.2,1.7v6.9H188.8z"/>
		<path class="st0" d="M202.5,18.9c-0.2,0.7-0.5,1.3-1,1.8c-0.4,0.4-0.8,0.7-1.3,0.9S199,22,198.3,22s-1.4-0.1-1.9-0.4
			s-1-0.5-1.3-0.9c-0.5-0.5-0.9-1.1-1-1.8c-0.2-0.7-0.2-1.5-0.2-2.4c0-0.9,0.1-1.7,0.2-2.4s0.5-1.3,1-1.8c0.4-0.4,0.8-0.7,1.3-0.9
			s1.1-0.4,1.9-0.4s1.4,0.1,1.9,0.4s1,0.5,1.3,0.9c0.5,0.5,0.9,1.1,1,1.8s0.2,1.5,0.2,2.4C202.8,17.4,202.7,18.2,202.5,18.9z
			 M200.5,14.8c-0.1-0.5-0.3-0.9-0.6-1.3c-0.4-0.4-0.9-0.6-1.6-0.6c-0.6,0-1.2,0.2-1.6,0.6c-0.3,0.3-0.5,0.8-0.6,1.3
			s-0.1,1.1-0.1,1.7c0,0.6,0,1.1,0.1,1.7c0.1,0.5,0.3,1,0.6,1.3c0.4,0.4,0.9,0.6,1.6,0.6c0.6,0,1.2-0.2,1.6-0.6
			c0.3-0.3,0.5-0.8,0.6-1.3s0.1-1.1,0.1-1.7S200.6,15.3,200.5,14.8z"/>
	</g>
	<rect x="4.3" y="10.2" transform="matrix(0.7071 -0.7071 0.7071 0.7071 -7.7443 10.4528)" class="st0" width="8.8" height="8.8"/>
	<path class="st0" d="M18.6,26.4L6.8,14.6L18.6,2.8l11.8,11.8L18.6,26.4z M9.6,14.6l9,9l9-9l-9-9L9.6,14.6z"/>
</g>
</svg>
